<svg width="16" height="16" viewBox="0 0 16 16" fill="none" xmlns="http://www.w3.org/2000/svg">
<path d="M13.3334 8V14.6667H2.66675V8" stroke="currentColor" stroke-width="2" stroke-linecap="round" stroke-linejoin="round"/>
<path d="M14.6666 4.66602H1.33325V7.99935H14.6666V4.66602Z" stroke="currentColor" stroke-width="2" stroke-linecap="round" stroke-linejoin="round"/>
<path d="M8 14.666V4.66602" stroke="currentColor" stroke-width="2" stroke-linecap="round" stroke-linejoin="round"/>
<path d="M7.99992 4.66732H4.99992C4.55789 4.66732 4.13397 4.49172 3.82141 4.17916C3.50885 3.8666 3.33325 3.44268 3.33325 3.00065C3.33325 2.55862 3.50885 2.1347 3.82141 1.82214C4.13397 1.50958 4.55789 1.33398 4.99992 1.33398C7.33325 1.33398 7.99992 4.66732 7.99992 4.66732Z" stroke="currentColor" stroke-width="2" stroke-linecap="round" stroke-linejoin="round"/>
<path d="M8 4.66732H11C11.442 4.66732 11.866 4.49172 12.1785 4.17916C12.4911 3.8666 12.6667 3.44268 12.6667 3.00065C12.6667 2.55862 12.4911 2.1347 12.1785 1.82214C11.866 1.50958 11.442 1.33398 11 1.33398C8.66667 1.33398 8 4.66732 8 4.66732Z" stroke="currentColor" stroke-width="2" stroke-linecap="round" stroke-linejoin="round"/>
</svg>
