<svg width="16" height="16" viewBox="0 0 16 16" fill="none" xmlns="http://www.w3.org/2000/svg">
<circle cx="8" cy="8" r="7" fill="transparent" stroke="currentColor" stroke-width="2"/>
<path d="M7.95055 3.99982C7.0856 3.99808 6.23523 4.22263 5.48389 4.65116L6.05189 5.79182C6.59756 5.48465 7.20768 5.30974 7.83322 5.28116C8.07927 5.26651 8.32382 5.32846 8.53322 5.45849C8.61518 5.51613 8.68113 5.59367 8.72486 5.68383C8.7686 5.77398 8.78868 5.87377 8.78322 5.97382C8.78464 6.16999 8.72345 6.36149 8.60855 6.52049C8.40082 6.76674 8.15773 6.98084 7.88722 7.15582C7.57718 7.36341 7.31176 7.63087 7.10655 7.94249C6.95928 8.20833 6.88563 8.50867 6.89322 8.81249V9.19982H8.27322V8.88516C8.26542 8.70709 8.31192 8.53086 8.40655 8.37982C8.59085 8.16429 8.80396 7.97517 9.03989 7.81782C9.42445 7.56878 9.75964 7.25076 10.0286 6.87982C10.2077 6.58152 10.2981 6.23834 10.2892 5.89049C10.2982 5.62773 10.2457 5.3665 10.1357 5.12769C10.0257 4.88888 9.86141 4.67911 9.65589 4.51516C9.16506 4.14951 8.56173 3.96719 7.95055 3.99982Z" fill="currentColor"/>
<path d="M7.66675 12C8.21903 12 8.66675 11.5523 8.66675 11C8.66675 10.4477 8.21903 10 7.66675 10C7.11446 10 6.66675 10.4477 6.66675 11C6.66675 11.5523 7.11446 12 7.66675 12Z" fill="currentColor"/>
</svg>
