<svg width="16" height="16" viewBox="0 0 16 16" fill="none" xmlns="http://www.w3.org/2000/svg">
<path d="M8.00156 4.41172C6.01517 4.41172 4.41294 6.01485 4.41294 8.00235C4.41294 9.98985 6.01517 11.593 8.00156 11.593C9.98795 11.593 11.5902 9.98985 11.5902 8.00235C11.5902 6.01485 9.98795 4.41172 8.00156 4.41172ZM8.00156 10.3367C6.7179 10.3367 5.66849 9.28985 5.66849 8.00235C5.66849 6.71485 6.71478 5.66797 8.00156 5.66797C9.28834 5.66797 10.3346 6.71485 10.3346 8.00235C10.3346 9.28985 9.28522 10.3367 8.00156 10.3367ZM12.574 4.26484C12.574 4.73047 12.1992 5.10235 11.737 5.10235C11.2716 5.10235 10.8999 4.72734 10.8999 4.26484C10.8999 3.80234 11.2747 3.42734 11.737 3.42734C12.1992 3.42734 12.574 3.80234 12.574 4.26484ZM14.9508 5.11485C14.8977 3.99297 14.6416 2.99922 13.8202 2.18047C13.0019 1.36172 12.0087 1.10547 10.8875 1.04922C9.73185 0.983594 6.26815 0.983594 5.11255 1.04922C3.99442 1.10234 3.00123 1.35859 2.17981 2.17734C1.35839 2.99609 1.10541 3.98984 1.04919 5.11172C0.983603 6.26797 0.983603 9.7336 1.04919 10.8898C1.10229 12.0117 1.35839 13.0055 2.17981 13.8242C3.00123 14.643 3.9913 14.8992 5.11255 14.9555C6.26815 15.0211 9.73185 15.0211 10.8875 14.9555C12.0087 14.9023 13.0019 14.6461 13.8202 13.8242C14.6385 13.0055 14.8946 12.0117 14.9508 10.8898C15.0164 9.7336 15.0164 6.2711 14.9508 5.11485ZM13.4579 12.1305C13.2143 12.743 12.7427 13.2148 12.1274 13.4617C11.206 13.8273 9.01974 13.743 8.00156 13.743C6.98338 13.743 4.79398 13.8242 3.87574 13.4617C3.26358 13.218 2.79197 12.7461 2.54523 12.1305C2.17981 11.2086 2.26414 9.0211 2.26414 8.00235C2.26414 6.9836 2.18293 4.79297 2.54523 3.87422C2.78885 3.26172 3.26046 2.78984 3.87574 2.54297C4.7971 2.17734 6.98338 2.26172 8.00156 2.26172C9.01974 2.26172 11.2091 2.18047 12.1274 2.54297C12.7395 2.78672 13.2112 3.25859 13.4579 3.87422C13.8233 4.7961 13.739 6.9836 13.739 8.00235C13.739 9.0211 13.8233 11.2117 13.4579 12.1305Z" fill="currentColor"/>
</svg>
