<svg width="16" height="16" viewBox="0 0 16 16" fill="none" xmlns="http://www.w3.org/2000/svg">
<path d="M14.3553 4.74149C14.3655 4.88362 14.3655 5.02577 14.3655 5.1679C14.3655 9.5029 11.066 14.4978 5.03553 14.4978C3.17766 14.4978 1.45178 13.9597 0 13.0258C0.263969 13.0562 0.51775 13.0664 0.791875 13.0664C2.32484 13.0664 3.73603 12.5486 4.86294 11.6654C3.42131 11.6349 2.21319 10.6907 1.79694 9.39124C2 9.42168 2.20303 9.44199 2.41625 9.44199C2.71066 9.44199 3.00509 9.40137 3.27919 9.33034C1.77666 9.02574 0.649719 7.70596 0.649719 6.11205V6.07146C1.08625 6.31512 1.59391 6.4674 2.13194 6.48768C1.24869 5.89884 0.670031 4.89377 0.670031 3.75671C0.670031 3.14759 0.832437 2.58921 1.11672 2.1019C2.73094 4.09174 5.15734 5.39121 7.87812 5.53337C7.82737 5.28971 7.79691 5.03593 7.79691 4.78212C7.79691 2.97499 9.25884 1.50293 11.0761 1.50293C12.0202 1.50293 12.873 1.89887 13.472 2.53846C14.2131 2.39634 14.9238 2.12221 15.5532 1.74659C15.3096 2.50802 14.7918 3.14762 14.1116 3.55368C14.7715 3.48265 15.4111 3.29987 15.9999 3.04609C15.5533 3.6958 14.9949 4.27446 14.3553 4.74149Z" fill="currentColor"/>
</svg>
